<svg width="138" height="164" viewBox="0 0 138 164" fill="none" xmlns="http://www.w3.org/2000/svg">
<path d="M3.26694 0H135.296L138 48.6469H130.114C129.063 40.2193 127.711 33.4095 126.059 28.2175C124.407 23.0255 122.041 19.0374 118.962 16.2533C115.958 13.3939 112.052 11.4751 107.246 10.4969C102.439 9.5187 96.3935 9.02959 89.1086 9.02959H79.9837V154.97H104.767V164H33.2327V154.97H58.0163V9.02959H49.4547C44.5731 9.02959 40.2547 9.21771 36.4996 9.59394C32.7445 9.97018 29.44 10.685 26.5861 11.7385C23.8073 12.7919 21.4041 14.2592 19.3763 16.1404C17.3486 18.0216 15.6212 20.4295 14.1943 23.3641C12.7673 26.2987 11.5282 29.8353 10.4767 33.9738C9.50041 38.1124 8.63673 43.0034 7.88571 48.6469H0L3.26694 0Z" fill="black"/>
</svg>
