<svg width="150" height="100" viewBox="0 0 1908 1246" fill="none" xmlns="http://www.w3.org/2000/svg">
<mask id="mask0_3_50" style="mask-type:alpha" maskUnits="userSpaceOnUse" x="0" y="0" width="1988" height="490">
<rect width="1988" height="490" fill="#D9D9D9"/>
</mask>
<g mask="url(#mask0_3_50)">
<path d="M69.9308 140.326H755.738L769.781 392.529H728.82C723.359 348.838 716.337 313.533 707.754 286.616C699.172 259.698 686.884 239.023 670.889 224.589C655.285 209.765 635 199.817 610.033 194.746C585.066 189.674 553.663 187.138 515.822 187.138H468.424V943.75H597.159V990.562H225.583V943.75H354.318V187.138H309.846C284.489 187.138 262.058 188.114 242.553 190.064C223.047 192.015 205.883 195.721 191.059 201.182C176.625 206.644 164.141 214.251 153.609 224.004C143.076 233.756 134.103 246.24 126.691 261.454C119.279 276.668 112.842 295.003 107.381 316.459C102.31 337.915 97.8234 363.271 93.9223 392.529H52.9612L69.9308 140.326ZM1214.08 715.537C1214.08 749.087 1215.45 780.685 1218.18 810.333C1221.3 839.981 1229.3 865.923 1242.17 888.159C1255.43 910.395 1275.33 928.145 1301.86 941.409C1328.77 954.282 1366.03 960.719 1413.62 960.719C1461.99 960.719 1501 954.087 1530.65 940.824C1560.3 927.17 1583.12 908.64 1599.12 885.234C1615.5 861.437 1626.42 833.545 1631.89 801.556C1637.35 769.177 1640.08 734.262 1640.08 696.812V187.138H1523.05V140.326H1809.19V187.138H1692.74V690.376C1692.74 742.65 1688.45 788.682 1679.87 828.473C1671.29 868.264 1655.88 901.618 1633.64 928.535C1611.4 955.453 1581.37 975.933 1543.53 989.977C1505.69 1003.63 1457.51 1010.46 1398.99 1010.46C1346.72 1010.46 1301.66 1004.8 1263.82 993.488C1225.98 982.175 1194.97 964.62 1170.78 940.824C1146.59 917.027 1128.65 886.794 1116.94 850.124C1105.63 813.064 1099.98 769.177 1099.98 718.463V187.138H982.943V140.326H1331.11V187.138H1214.08V715.537Z" fill="white"/>
</g>
<mask id="mask1_3_50" style="mask-type:alpha" maskUnits="userSpaceOnUse" x="0" y="684" width="1988" height="562">
<rect y="684" width="1988" height="562" fill="#D9D9D9"/>
</mask>
<g mask="url(#mask1_3_50)">
<path d="M69.9308 75.7634H755.738L769.781 327.967H728.82C723.359 284.275 716.337 248.971 707.754 222.053C699.172 195.136 686.884 174.46 670.889 160.026C655.285 145.202 635 135.255 610.033 130.183C585.066 125.112 553.663 122.576 515.822 122.576H468.424V879.187H597.159V926H225.583V879.187H354.318V122.576H309.846C284.489 122.576 262.058 123.551 242.553 125.502C223.047 127.453 205.883 131.159 191.059 136.62C176.625 142.082 164.141 149.689 153.609 159.441C143.076 169.194 134.103 181.677 126.691 196.891C119.279 212.106 112.842 230.441 107.381 251.896C102.31 273.352 97.8234 298.709 93.9223 327.967H52.9612L69.9308 75.7634ZM1214.08 650.975C1214.08 684.524 1215.45 716.123 1218.18 745.771C1221.3 775.419 1229.3 801.361 1242.17 823.597C1255.43 845.833 1275.33 863.583 1301.86 876.847C1328.77 889.72 1366.03 896.157 1413.62 896.157C1461.99 896.157 1501 889.525 1530.65 876.261C1560.3 862.608 1583.12 844.078 1599.12 820.671C1615.5 796.875 1626.42 768.982 1631.89 736.994C1637.35 704.615 1640.08 669.7 1640.08 632.25V122.576H1523.05V75.7634H1809.19V122.576H1692.74V625.813C1692.74 678.087 1688.45 724.12 1679.87 763.911C1671.29 803.702 1655.88 837.056 1633.64 863.973C1611.4 890.89 1581.37 911.371 1543.53 925.415C1505.69 939.069 1457.51 945.895 1398.99 945.895C1346.72 945.895 1301.66 940.239 1263.82 928.926C1225.98 917.613 1194.97 900.058 1170.78 876.261C1146.59 852.465 1128.65 822.232 1116.94 785.562C1105.63 748.502 1099.98 704.615 1099.98 653.901V122.576H982.943V75.7634H1331.11V122.576H1214.08V650.975Z" fill="white"/>
</g>
<path d="M164.927 643H151.309V529.783H122.922V528.143H193.478V529.783H164.927V643ZM225.827 643H223.858L272.919 528.143L274.724 527.322L316.072 643H302.126L289.327 606.902H241.415L225.827 643ZM267.832 545.864L242.072 605.261H288.835L267.832 545.864ZM364.527 529.455C377.216 528.58 388.428 528.143 398.163 528.143C425.182 528.143 438.692 537.167 438.692 555.216C438.692 562.873 436.832 569.71 433.113 575.726C429.394 581.743 422.994 585.735 413.915 587.704L446.732 643H431.472L399.312 588.689H378.145V643H364.527V529.455ZM398.163 529.783C391.819 529.783 385.146 530.166 378.145 530.932V587.048H402.43C417.853 586.392 425.565 575.891 425.565 555.544C425.565 547.231 423.268 540.886 418.674 536.511C414.079 532.026 407.243 529.783 398.163 529.783ZM545.724 643.656C525.269 643.656 510.119 637.859 500.274 626.264C496.773 622.107 493.929 616.583 491.741 609.691C489.554 602.8 488.46 594.432 488.46 584.587C488.46 574.742 490.046 565.936 493.218 558.17C496.5 550.294 500.93 544.223 506.509 539.957C517.338 531.971 530.41 527.979 545.724 527.979C550.647 527.979 555.46 528.361 560.163 529.127C564.867 529.784 568.368 530.495 570.665 531.26L574.11 532.409L573.618 534.05C565.086 531.096 555.788 529.619 545.724 529.619C534.129 529.619 524.448 533.393 516.682 540.941C510.775 546.52 506.618 554.724 504.212 565.553C502.79 571.679 502.079 579.172 502.079 588.033C502.079 596.893 503.336 605.097 505.852 612.645C508.368 620.083 511.212 625.607 514.385 629.217C517.666 632.827 521.604 635.726 526.199 637.913C530.793 639.992 534.457 641.195 537.192 641.523C539.927 641.851 543.154 642.016 546.873 642.016C550.701 642.016 555.788 641.578 562.132 640.703V606.902H542.279V605.261H582.807V606.902H575.751V639.226C567.438 642.18 557.429 643.656 545.724 643.656ZM697.24 528.143V529.783H645.554V579.008H693.466V580.649H645.554V641.359H700.85V643H631.935V528.143H697.24ZM787.221 643H773.602V529.783H745.216V528.143H815.771V529.783H787.221V643ZM1013.83 528.143V529.783H962.142V582.29H1010.05V583.931H962.142V643H948.524V528.143H1013.83ZM1058.2 588.361C1058.2 568.452 1063.01 553.357 1072.63 543.074C1082.37 532.682 1094.84 527.486 1110.05 527.486C1125.25 527.486 1137.34 531.971 1146.31 540.941C1155.39 549.911 1159.93 564.241 1159.93 583.931C1159.93 603.62 1155.11 618.497 1145.49 628.561C1135.86 638.624 1123.01 643.656 1106.93 643.656C1093.04 643.656 1081.66 639.664 1072.8 631.678C1068.2 627.522 1064.59 621.779 1061.97 614.45C1059.45 607.011 1058.2 598.315 1058.2 588.361ZM1109.55 529.127C1098.51 529.127 1089.43 534.05 1082.32 543.895C1075.31 553.739 1071.81 568.179 1071.81 587.212C1071.81 606.246 1075.15 620.138 1081.82 628.889C1088.5 637.64 1097.36 642.016 1108.4 642.016C1119.56 642.016 1128.64 637.093 1135.64 627.248C1142.75 617.294 1146.31 602.909 1146.31 584.095C1146.31 565.17 1142.92 551.278 1136.13 542.418C1129.46 533.557 1120.6 529.127 1109.55 529.127ZM1211.61 529.455C1224.29 528.58 1235.51 528.143 1245.24 528.143C1272.26 528.143 1285.77 537.167 1285.77 555.216C1285.77 562.873 1283.91 569.71 1280.19 575.726C1276.47 581.743 1270.07 585.735 1260.99 587.704L1293.81 643H1278.55L1246.39 588.689H1225.22V643H1211.61V529.455ZM1245.24 529.783C1238.9 529.783 1232.23 530.166 1225.22 530.932V587.048H1249.51C1264.93 586.392 1272.64 575.891 1272.64 555.544C1272.64 547.231 1270.35 540.886 1265.75 536.511C1261.16 532.026 1254.32 529.783 1245.24 529.783ZM1494.39 528.143C1496.47 530.221 1497.5 532.901 1497.5 536.183C1497.5 538.917 1496.9 541.707 1495.7 544.551L1466.33 604.113V643H1452.71V607.722L1419.89 528.143H1433.84L1465.18 602.144L1493.73 544.551C1494.93 541.816 1495.54 538.972 1495.54 536.019C1495.54 533.065 1494.71 530.768 1493.07 529.127L1494.39 528.143ZM1539.33 588.361C1539.33 568.452 1544.15 553.357 1553.77 543.074C1563.51 532.682 1575.98 527.486 1591.18 527.486C1606.39 527.486 1618.48 531.971 1627.45 540.941C1636.52 549.911 1641.06 564.241 1641.06 583.931C1641.06 603.62 1636.25 618.497 1626.63 628.561C1617 638.624 1604.15 643.656 1588.07 643.656C1574.17 643.656 1562.8 639.664 1553.94 631.678C1549.34 627.522 1545.73 621.779 1543.11 614.45C1540.59 607.011 1539.33 598.315 1539.33 588.361ZM1590.69 529.127C1579.64 529.127 1570.56 534.05 1563.45 543.895C1556.45 553.739 1552.95 568.179 1552.95 587.212C1552.95 606.246 1556.29 620.138 1562.96 628.889C1569.63 637.64 1578.49 642.016 1589.54 642.016C1600.7 642.016 1609.78 637.093 1616.78 627.248C1623.89 617.294 1627.45 602.909 1627.45 584.095C1627.45 565.17 1624.05 551.278 1617.27 542.418C1610.6 533.557 1601.74 529.127 1590.69 529.127ZM1771.67 528.143H1773.8V593.775C1773.8 610.949 1770.41 623.584 1763.63 631.678C1756.85 639.664 1747.98 643.656 1737.05 643.656C1730.15 643.656 1724.3 643.055 1719.49 641.851C1714.68 640.539 1710.14 638.187 1705.87 634.796C1697.12 628.014 1692.74 614.34 1692.74 593.775V528.143H1706.36V593.611C1706.36 613.52 1709.37 626.811 1715.39 633.483C1718.45 636.765 1721.62 639.007 1724.9 640.211C1728.29 641.414 1732.34 642.016 1737.05 642.016C1747.55 642.016 1755.92 638.187 1762.15 630.53C1768.49 622.763 1771.67 610.457 1771.67 593.611V528.143Z" fill="white"/>
<line x1="871.5" y1="-1.5299e-07" x2="871.5" y2="1118" stroke="white" stroke-width="7"/>
</svg>
